<svg width="24" height="24" viewBox="0 0 24 24" fill="none" xmlns="http://www.w3.org/2000/svg">
<path d="M15.25 3.5V2C15.25 1.59 15.59 1.25 16 1.25C16.41 1.25 16.75 1.59 16.75 2V3.56C16.5 3.53 16.27 3.5 16 3.5H15.25Z" fill="url(#paint0_linear_4231_34898)"/>
<path d="M7.25 3.56V2C7.25 1.59 7.59 1.25 8 1.25C8.41 1.25 8.75 1.59 8.75 2V3.5H8C7.73 3.5 7.5 3.53 7.25 3.56Z" fill="url(#paint1_linear_4231_34898)"/>
<path d="M7.25 3.56V5C7.25 5.41 7.59 5.75 8 5.75C8.41 5.75 8.75 5.41 8.75 5V3.5H15.25V5C15.25 5.41 15.59 5.75 16 5.75C16.41 5.75 16.75 5.41 16.75 5V3.56C19.7 3.83 21 5.73 21 8.5V17C21 20 19.5 22 16 22H8C4.5 22 3 20 3 17V8.5C3 5.73 4.3 3.83 7.25 3.56ZM12 16.75H16C16.41 16.75 16.75 16.41 16.75 16C16.75 15.59 16.41 15.25 16 15.25H12C11.59 15.25 11.25 15.59 11.25 16C11.25 16.41 11.59 16.75 12 16.75ZM8 11.75H16C16.41 11.75 16.75 11.41 16.75 11C16.75 10.59 16.41 10.25 16 10.25H8C7.59 10.25 7.25 10.59 7.25 11C7.25 11.41 7.59 11.75 8 11.75Z" fill="url(#paint2_linear_4231_34898)"/>
<defs>
<linearGradient id="paint0_linear_4231_34898" x1="16.75" y1="1.50601" x2="15.0275" y2="1.75468" gradientUnits="userSpaceOnUse">
<stop stop-color="#1442D3"/>
<stop offset="1" stop-color="#0A226D"/>
</linearGradient>
<linearGradient id="paint1_linear_4231_34898" x1="8.75" y1="1.50601" x2="7.02753" y2="1.75468" gradientUnits="userSpaceOnUse">
<stop stop-color="#1442D3"/>
<stop offset="1" stop-color="#0A226D"/>
</linearGradient>
<linearGradient id="paint2_linear_4231_34898" x1="21" y1="5.55026" x2="0.842835" y2="9.91069" gradientUnits="userSpaceOnUse">
<stop stop-color="#1442D3"/>
<stop offset="1" stop-color="#0A226D"/>
</linearGradient>
</defs>
</svg>
