<svg width="24" height="24" viewBox="0 0 24 24" fill="none" xmlns="http://www.w3.org/2000/svg">
<path d="M3.3799 8.45C4.4299 3.83 8.4599 1.75 11.9999 1.75C11.9999 1.75 11.9999 1.75 12.0099 1.75C15.5399 1.75 19.5799 3.82 20.6299 8.44C21.7999 13.6 18.6399 17.97 15.7799 20.72C14.7199 21.74 13.3599 22.25 11.9999 22.25C10.6399 22.25 9.2799 21.74 8.2299 20.72C5.3699 17.97 2.2099 13.61 3.3799 8.45ZM11.9999 13.46C13.7399 13.46 15.1499 12.05 15.1499 10.31C15.1499 8.57 13.7399 7.16 11.9999 7.16C10.2599 7.16 8.84991 8.57 8.84991 10.31C8.84991 12.05 10.2599 13.46 11.9999 13.46Z" fill="url(#paint0_linear_4231_40209)"/>
<defs>
<linearGradient id="paint0_linear_4231_40209" x1="20.8799" y1="4.02191" x2="0.816102" y2="7.88429" gradientUnits="userSpaceOnUse">
<stop stop-color="#1442D3"/>
<stop offset="1" stop-color="#0A226D"/>
</linearGradient>
</defs>
</svg>
